<svg width="344" height="346" viewBox="0 0 344 346" fill="none" xmlns="http://www.w3.org/2000/svg">
<path d="M184.434 28.1966C176.946 23.3734 170.091 23.966 162.458 27.7107C121.79 47.6612 80.9389 67.2374 40.1467 86.9337C38.6491 87.6568 37.1402 88.3838 35.5755 88.9361C29.0348 91.2449 22.5395 88.7522 19.9266 82.9964C17.234 77.065 19.6616 70.1312 25.9629 66.9838C38.6276 60.6578 51.4022 54.5513 64.1452 48.3826C93.3801 34.2301 122.895 20.621 151.751 5.73522C166.681 -1.96644 179.977 -1.87718 194.82 5.79674C238.025 28.1324 281.566 49.822 325.142 71.4304C337.332 77.4755 343.154 87.0654 343.204 100.083C343.397 150.403 343.389 200.724 343.207 251.044C343.163 263.304 337.621 272.532 326.4 278.444C285.584 299.951 244.896 321.7 204.141 343.324C198.191 346.482 192.29 345.746 188.583 341.609C184.961 337.567 184.606 330.935 187.699 326.261C189.242 323.931 191.549 322.644 193.912 321.384C233.009 300.544 272.041 279.581 311.266 258.984C316.873 256.04 318.818 252.206 318.802 246.357C318.721 218.198 318.755 190.039 318.757 161.879C318.758 148.06 318.778 134.241 318.79 120.422C318.791 118.467 318.79 116.512 318.79 114.26C315.511 114.243 313.495 115.822 311.373 116.948C289.894 128.348 268.479 139.871 246.957 151.189C238.049 155.874 229.173 151.294 228.633 141.906C228.311 136.328 231.113 132.493 235.977 129.892C258.744 117.719 281.481 105.489 304.222 93.2657C305.517 92.5694 307.059 92.2274 308.409 90.1463C267.122 69.5192 225.945 48.9465 184.434 28.1966Z" fill="black"/>
<path d="M190.065 212.323C191.732 210.744 193.711 209.916 194.359 207.733C193.07 205.318 190.801 203.83 188.796 202.133C173.027 188.787 157.218 175.489 141.422 162.174C137.772 159.098 135.452 155.469 136.56 150.422C137.588 145.735 140.44 142.825 145.066 141.578C148.838 140.56 152.055 141.913 154.791 144.213C175.83 161.908 196.885 179.585 217.739 197.495C224.417 203.23 224.279 212.91 217.572 218.622C196.901 236.227 176.096 253.675 155.254 271.078C149.556 275.836 143.455 275.538 139.198 270.767C134.775 265.808 135.32 258.852 141.022 253.938C154.777 242.085 168.709 230.436 182.568 218.702C184.983 216.656 187.386 214.595 190.065 212.323Z" fill="#2876E2"/>
<path d="M41.6697 220.9C54.7104 231.802 67.4785 242.476 80.2505 253.146C86.0904 258.025 87.2535 265.271 82.9917 270.292C78.7676 275.268 71.9705 275.363 66.2013 270.524C46.3106 253.84 26.605 236.929 6.44558 220.577C-2.45496 213.357 -1.80091 202.178 6.33502 195.53C26.1779 179.318 45.5359 162.512 65.0591 145.91C68.1967 143.242 71.5338 141.054 75.8242 141.616C80.3115 142.204 83.6444 144.694 84.9367 149.097C86.3708 153.984 85.0964 158.356 81.1399 161.696C64.2317 175.969 47.2873 190.198 30.3651 204.454C29.2407 205.401 28.1909 206.437 26.4968 207.991C31.6541 212.379 36.5264 216.524 41.6697 220.9ZM75.8379 148.703C73.1251 149.288 71.9656 151.024 72.4216 153.692C72.7029 155.339 73.9473 156.16 75.5958 156.202C77.2544 156.244 78.4718 155.458 78.8528 153.82C79.3672 151.61 79.3387 149.53 75.8379 148.703Z" fill="#2876E2"/>
</svg>
